<svg version="1" xmlns="http://www.w3.org/2000/svg" width="346.667" height="346.667" viewBox="0 0 260.000000 260.000000"><path d="M0 130v130h260V0H0v130zm124-78.3c0 .5-2.1 6.8-4.7 14L114.6 79H86.1l4.4-12.3c2.4-6.7 4.6-13 5-14 .6-1.5 2.3-1.7 14.6-1.7 7.6 0 13.9.3 13.9.7zm-20.8 59c-1 2.7-9.9 26.5-19.7 53l-18 48.3H51.6c-12.8 0-13.8-.1-13.1-1.8.4-.9 4-10.9 8.1-22.2 4.1-11.3 12.5-34.3 18.7-51.2L76.5 106H105l-1.8 4.7zm60.8-3.8c0 .4-4 11.6-8.9 24.7-4.9 13.2-13.6 36.5-19.3 51.9l-10.3 28-13.8.3c-7.5.1-13.7-.1-13.7-.4 0-.4 8.6-24.3 19.2-53.1l19.2-52.3h13.8c7.6 0 13.8.4 13.8.9zm60-.4c0 .7-10.5 29.2-26.1 71l-12.7 34-13.6.3c-7.5.1-13.6 0-13.6-.4 0-.3 4.8-13.7 10.6-29.7 9.4-26.1 25.9-71.2 27.1-74.5.4-.9 4.2-1.2 14.4-1.2 7.6 0 13.9.2 13.9.5z"/></svg>